<svg width="21" height="21" viewBox="0 0 21 21" fill="none" xmlns="http://www.w3.org/2000/svg">
<path d="M11.4187 0.390381C11.7592 0.441967 12.11 0.472918 12.4453 0.539979C16.5102 1.40146 19.1411 3.82598 20.3069 7.81355C20.6371 8.94844 20.6938 10.1246 20.5803 11.3007C20.5391 11.7392 20.3379 12.0642 19.9149 12.2087C19.5331 12.3376 19.1875 12.2448 18.9038 11.9559C18.6923 11.7392 18.6201 11.471 18.6459 11.1718C18.7232 10.4238 18.7232 9.6758 18.5736 8.93812C17.934 5.78108 16.1079 3.60932 13.0282 2.6911C9.81441 1.73161 6.98235 2.57245 4.73322 5.06404C3.08248 6.89017 2.46345 9.1032 2.86066 11.5432C3.42295 15.0149 6.01254 17.6045 9.46878 18.1668C11.3981 18.4815 13.2087 18.0997 14.8853 17.0887C15.1329 16.9391 15.3857 16.8307 15.69 16.8926C16.0975 16.9803 16.3864 17.264 16.4638 17.6819C16.536 18.0585 16.3658 18.4402 16.0202 18.662C15.2515 19.1521 14.4262 19.5235 13.5492 19.7866C8.52992 21.2774 3.20113 18.6001 1.42142 13.6943C1.11707 12.8535 0.921042 11.992 0.853981 11.0996C0.848822 11.0377 0.833347 10.9758 0.817871 10.9139C0.817871 10.4754 0.817871 10.0369 0.817871 9.59842C0.828188 9.55715 0.843664 9.51588 0.848822 9.46945C0.905567 9.08772 0.941677 8.70083 1.0139 8.32425C1.75673 4.46049 4.9344 1.30345 8.80849 0.581248C9.23665 0.503869 9.66997 0.452284 10.1033 0.390381C10.5418 0.390381 10.9802 0.390381 11.4187 0.390381Z" fill="#5FBF82"/>
<path d="M9.89434 11.7118C9.98719 11.5931 10.0285 11.5261 10.08 11.4745C11.5502 9.99913 13.0256 8.52894 14.4958 7.05875C14.7743 6.77503 15.0993 6.6409 15.4914 6.74408C16.1775 6.92463 16.4406 7.73968 15.9918 8.28649C15.9453 8.34839 15.8886 8.39997 15.8318 8.45672C14.114 10.1745 12.3962 11.8923 10.6784 13.6101C10.1626 14.126 9.62609 14.126 9.11023 13.6101C8.34677 12.8467 7.57298 12.0832 6.81467 11.3094C6.26271 10.7523 6.5 9.85985 7.24283 9.66898C7.60909 9.57613 7.92892 9.68446 8.19717 9.9527C8.70787 10.4634 9.21856 10.9741 9.72926 11.4848C9.78085 11.5364 9.81696 11.5983 9.89434 11.7118Z" fill="#5FBF82"/>
</svg>
