<svg width="23" height="18" viewBox="0 0 23 18" fill="none" xmlns="http://www.w3.org/2000/svg">
<path d="M0.66491 11.1292C0.801104 10.9417 0.912783 10.7325 1.07622 10.5694C2.8086 8.8301 4.55188 7.09625 6.28972 5.35968C6.45043 5.19934 6.61658 5.06617 6.85628 5.04443C7.30027 5.00638 7.67617 5.28358 7.70886 5.72656C7.74154 6.18856 7.7252 6.65327 7.72792 7.11527C7.73065 7.4577 7.72792 7.7974 7.72792 8.167C7.8396 8.167 7.92949 8.167 8.01938 8.167C10.7351 8.167 13.4535 8.17787 16.1692 8.15885C16.8447 8.15341 17.1825 8.55562 17.1416 9.13991C17.1199 9.46603 17.1362 9.79215 17.1362 10.0802C18.302 8.91707 19.4787 7.74305 20.6337 6.59077C19.4978 5.4548 18.3129 4.27534 17.1362 3.0986C17.1362 3.41385 17.1362 3.76714 17.1362 4.11772C17.1362 4.72103 16.8338 5.03084 16.2291 5.03084C14.2135 5.03356 12.1978 5.03356 10.1794 5.03084C9.5502 5.03084 9.16341 4.56069 9.32684 4.01988C9.43035 3.67746 9.72725 3.4682 10.1277 3.46548C11.0211 3.46277 11.9145 3.46548 12.808 3.46548C13.636 3.46548 14.4668 3.46548 15.2949 3.46548C15.3711 3.46548 15.4501 3.46548 15.5482 3.46548C15.5536 3.3758 15.5591 3.30242 15.5591 3.22633C15.5591 2.54964 15.5536 1.87023 15.5618 1.19354C15.5672 0.660879 15.9132 0.296715 16.3926 0.351068C16.5778 0.370091 16.7875 0.465209 16.9183 0.592938C18.7433 2.39473 20.5547 4.2074 22.3688 6.02006C22.7256 6.37607 22.712 6.8272 22.3442 7.19408C20.5519 8.98501 18.7542 10.7759 16.9619 12.5669C16.6977 12.8305 16.3953 12.931 16.0466 12.7897C15.7007 12.6511 15.5618 12.363 15.5618 12.0043C15.5591 11.3276 15.5618 10.6482 15.5591 9.97151C15.5591 9.89542 15.5536 9.81932 15.5482 9.72149C15.4447 9.72149 15.363 9.72149 15.2785 9.72149C12.541 9.72149 9.80079 9.72149 7.0633 9.72149C6.43953 9.72149 6.14808 9.42798 6.14808 8.80021C6.14808 8.51486 6.14808 8.22951 6.14808 7.94415C6.14808 7.88165 6.14808 7.82186 6.14808 7.77294C4.96319 8.95512 3.78647 10.1319 2.62338 11.295C3.77285 12.4418 4.95502 13.6213 6.13446 14.798C6.13718 14.7817 6.14535 14.7301 6.14808 14.6785C6.1508 14.336 6.14263 13.9936 6.1508 13.6512C6.15897 13.2164 6.43953 12.9147 6.8699 12.8631C6.94072 12.8549 7.01154 12.8522 7.08237 12.8522C9.07624 12.8522 11.0728 12.8495 13.0667 12.8549C13.2002 12.8549 13.3418 12.8685 13.4671 12.9093C13.8131 13.0207 14.031 13.3794 13.9847 13.7273C13.9356 14.0996 13.6469 14.3795 13.2737 14.4149C13.1947 14.423 13.1158 14.4203 13.0368 14.4203C11.3507 14.4203 9.66188 14.4203 7.9758 14.4203C7.89953 14.4203 7.82054 14.4203 7.71703 14.4203C7.71703 14.5154 7.71703 14.5915 7.71703 14.6676C7.71703 15.3307 7.71975 15.9938 7.7143 16.6569C7.70886 17.2167 7.36292 17.5945 6.87535 17.5347C6.69285 17.513 6.48311 17.4151 6.35237 17.2847C4.53282 15.4883 2.72416 13.6811 0.920955 11.8711C0.809276 11.7597 0.743902 11.6021 0.656738 11.4662C0.66491 11.3575 0.66491 11.2434 0.66491 11.1292Z" fill="#4571D0"/>
</svg>
