<svg width="60" height="60" viewBox="0 0 60 60" fill="none" xmlns="http://www.w3.org/2000/svg">
<path d="M49.3927 60C48.6128 60 47.8328 60 47.0422 60C46.9247 59.9616 46.7965 59.9136 46.6789 59.904C42.2984 59.3087 39.1894 57.1771 37.3731 53.5574C37.138 53.0965 36.903 52.9429 36.3367 52.9429C24.5201 52.9621 12.6927 52.9525 0.876098 52.9525C0.59831 52.9525 0.320524 52.9525 0 52.9525C0.0427365 52.7316 0.0641031 52.5588 0.10684 52.3956C1.1432 48.3245 2.14751 44.2535 3.23729 40.2016C4.01723 37.2924 6.11132 35.4489 9.33792 34.7C12.2761 34.0086 15.2356 33.3749 18.1737 32.6932C18.3981 32.6452 18.6972 32.4436 18.7399 32.2804C18.9964 31.1378 19.2101 29.976 19.4024 28.8238C19.4344 28.6222 19.3169 28.3245 19.1566 28.1709C16.6031 25.9433 15.3745 23.2261 15.3745 20.0384C15.3745 18.1853 15.3851 16.3322 15.3638 14.4695C15.3638 14.1623 15.2356 13.8166 15.0432 13.567C11.9235 9.30389 11.3465 4.79117 13.291 0C19.4665 0 25.6419 0 31.8066 0C31.8814 0.0288046 31.9562 0.0768127 32.0417 0.0960157C37.2983 0.988959 40.8668 5.18483 40.3967 9.96639C40.2364 11.5698 39.5847 12.9813 38.2064 14.0951C37.9927 14.2679 37.8218 14.6039 37.8218 14.8728C37.7897 16.7067 37.8325 18.5406 37.8004 20.3745C37.7363 23.3797 36.5183 25.9626 34.1251 28.0653C33.8046 28.3437 33.7084 28.603 33.7832 28.987C33.9969 30.024 34.2212 31.061 34.3815 32.0979C34.4456 32.5108 34.6486 32.6356 35.0546 32.722C38.0034 33.3653 40.9522 34.0278 43.8904 34.7C46.1981 35.228 47.9717 36.409 49.1149 38.2813C49.3927 38.7422 49.7346 38.9342 50.2795 39.0206C55.5467 39.8464 59.5106 43.7734 59.9593 48.5934C60.408 53.3365 57.1066 57.8685 52.053 59.4143C51.1769 59.6639 50.2795 59.808 49.3927 60ZM16.7634 44.8584C16.7634 46.3946 16.7634 47.8829 16.7634 49.3903C23.3448 49.3903 29.8514 49.3903 36.3474 49.3903C36.7427 44.2727 39.6274 40.9025 45.1618 39.1263C44.4246 38.771 43.8476 38.435 43.228 38.2045C42.651 37.9933 41.9886 37.9645 41.4117 37.7436C40.3005 37.3308 39.4778 37.5228 38.8582 38.4638C38.7299 38.6654 38.5163 38.819 38.3453 38.9918C36.3153 41.0466 34.2853 43.1109 32.2019 45.2232C30.3215 43.2645 28.4625 41.3346 26.5714 39.3663C24.6696 41.3346 22.8213 43.2645 20.9516 45.2136C20.7592 45.0216 20.6097 44.8872 20.4601 44.7432C18.1951 42.4484 15.93 40.1632 13.6864 37.8493C13.3658 37.5228 13.088 37.4364 12.6286 37.5612C11.8594 37.7724 11.0687 37.9069 10.2995 38.0893C8.53661 38.5022 7.42546 39.4911 7.00878 41.085C6.43184 43.3029 5.87626 45.5305 5.31001 47.758C5.17111 48.2957 5.03222 48.8334 4.89333 49.3903C7.58572 49.3903 10.182 49.3903 12.8637 49.3903C12.8637 47.8541 12.8637 46.3658 12.8637 44.8584C14.1885 44.8584 15.4386 44.8584 16.7634 44.8584ZM19.2742 15.2088C19.2742 16.9083 19.178 18.6462 19.3062 20.3745C19.3917 21.421 19.6588 22.506 20.1289 23.4662C21.443 26.1258 24.6055 27.6716 27.5223 27.23C31.0801 26.6923 33.7511 23.927 33.8473 20.5857C33.9114 18.1469 33.8794 15.7081 33.8687 13.2693C33.858 12.3668 33.3772 11.6755 32.5332 11.1858C32.1165 10.9458 31.8173 10.9362 31.4113 11.2818C29.2852 13.0677 26.7958 14.2679 23.9324 14.748C22.426 14.9976 20.8875 15.0552 19.2742 15.2088ZM16.1971 3.53337C15.8125 5.97216 16.2612 8.21892 17.4365 10.3889C17.8959 11.2434 18.4515 11.8003 19.6054 11.5795C19.8297 11.5314 20.0861 11.5698 20.3212 11.5698C24.1995 11.5795 27.3941 10.2352 29.9583 7.63322C30.1292 7.46039 30.4604 7.30677 30.7168 7.30677C32.8003 7.31637 34.6379 7.90206 36.0803 9.30389C36.1871 9.40951 36.2512 9.55353 36.3367 9.68795C36.8602 6.44263 34.093 3.55257 30.61 3.52376C25.941 3.48536 21.2721 3.51416 16.6031 3.51416C16.4856 3.50456 16.3788 3.52376 16.1971 3.53337ZM55.0019 52.8469C56.5297 50.8305 56.6472 47.0763 53.7839 44.4551C51.2838 42.1604 46.8819 41.6419 44.3712 43.2933C47.9076 46.4714 51.4654 49.6688 55.0019 52.8469ZM41.4117 45.9145C39.5206 48.3053 40.1296 52.2612 42.7044 54.4887C45.6532 57.0331 49.8201 56.8987 52.0637 55.4873C48.5273 52.3092 44.9908 49.1311 41.4117 45.9145ZM23.0991 30.3024C22.9388 31.1282 22.7785 31.8867 22.6717 32.6548C22.6503 32.8085 22.8426 33.0773 23.0136 33.1541C24.0713 33.6438 25.1504 34.1047 26.2295 34.5463C26.4111 34.6231 26.6996 34.6327 26.8813 34.5559C27.9817 34.1047 29.0822 33.6342 30.1613 33.1445C30.3109 33.0773 30.4925 32.8565 30.4711 32.7316C30.3536 31.9347 30.1933 31.1378 30.0331 30.2929C27.6932 30.9842 25.4175 30.9746 23.0991 30.3024ZM32.2447 39.8752C33.3665 38.7326 34.4563 37.6284 35.5995 36.4666C34.8943 36.3034 34.2853 36.1594 33.6764 36.0346C33.4093 35.977 33.078 35.8425 32.8644 35.9289C31.8173 36.3322 30.813 36.7931 29.7232 37.2636C30.5993 38.1661 31.4006 39.0014 32.2447 39.8752ZM17.5433 36.4666C18.6972 37.638 19.787 38.7422 20.9088 39.8752C21.7529 38.9918 22.5649 38.1469 23.4196 37.254C22.3512 36.7931 21.3789 36.3706 20.396 35.9674C20.2678 35.9193 20.0968 35.9001 19.9686 35.9289C19.1887 36.0826 18.4194 36.265 17.5433 36.4666Z" fill="#EA5455"/>
</svg>
