<svg width="17" height="20" viewBox="0 0 17 20" fill="none" xmlns="http://www.w3.org/2000/svg">
<path d="M14.3891 2.97357C10.9882 2.97357 7.65427 2.97357 4.24389 2.97357C4.38718 3.15508 4.50182 3.28882 4.6069 3.42256C6.23089 5.40956 7.84533 7.39656 9.47888 9.37401C9.75591 9.71792 9.88965 10.0905 9.75591 10.5108C9.69859 10.7114 9.5744 10.9025 9.44066 11.0649C7.83578 13.0328 6.23089 15.0007 4.61645 16.9686C4.50181 17.1023 4.39673 17.2456 4.24389 17.4271C7.65427 17.4271 10.9978 17.4271 14.3986 17.4271C14.3986 17.0163 14.37 16.6056 14.4082 16.2043C14.4559 15.507 15.0673 15.0675 15.7551 15.1917C16.271 15.2873 16.6531 15.7171 16.6627 16.2808C16.6818 17.0545 16.6818 17.8283 16.6627 18.6021C16.6435 19.2899 16.1564 19.7198 15.4208 19.7198C12.3543 19.7198 9.28782 19.7198 6.23089 19.7198C4.81706 19.7198 3.40323 19.7102 1.9894 19.7198C1.45444 19.7198 1.02456 19.5478 0.795289 19.0415C0.56602 18.5448 0.728419 18.1149 1.05322 17.7232C2.99246 15.3541 4.93169 12.985 6.87093 10.6063C6.97601 10.4821 7.07155 10.358 7.19573 10.2051C6.98557 9.94719 6.78496 9.69881 6.57479 9.44088C4.73109 7.1864 2.87782 4.93192 1.03411 2.66788C0.451385 1.95141 0.632893 1.05344 1.42578 0.766855C1.58818 0.709537 1.77924 0.69043 1.96074 0.69043C6.44105 0.69043 10.9118 0.69043 15.3921 0.69043C16.2041 0.69043 16.6531 1.14897 16.6627 1.96097C16.6627 2.64878 16.6722 3.32703 16.6627 4.01484C16.6531 4.74086 16.185 5.24716 15.5259 5.24716C14.8763 5.24716 14.4082 4.75996 14.3891 4.05305C14.3795 3.70915 14.3891 3.35569 14.3891 2.97357Z" fill="#7694FF"/>
</svg>
