<svg width="23" height="23" viewBox="0 0 23 23" fill="none" xmlns="http://www.w3.org/2000/svg">
<path d="M11.7446 4.52257C12.7417 4.52257 13.7389 4.51924 14.7393 4.52257C15.8362 4.52589 16.6073 5.27042 16.604 6.36396C16.6007 7.04866 16.6239 7.74666 16.4976 8.41142C16.2816 9.57476 15.6035 10.4755 14.6263 11.1403C14.3072 11.3596 14.3105 11.476 14.6263 11.702C15.8993 12.6061 16.6073 13.8159 16.6073 15.4014C16.6073 15.8069 16.6173 16.2157 16.6006 16.6212C16.5674 17.5386 15.8196 18.3031 14.9055 18.3097C12.8049 18.3263 10.7075 18.3263 8.60689 18.3097C7.69284 18.3031 6.92836 17.5353 6.91839 16.6179C6.91174 15.88 6.8918 15.1255 7.02475 14.4043C7.23415 13.2476 7.91553 12.3568 8.88941 11.6987C9.20517 11.4826 9.20185 11.3563 8.88941 11.1336C7.61307 10.2295 6.90842 9.01968 6.90842 7.43422C6.90842 7.04201 6.90177 6.65313 6.91174 6.26092C6.94166 5.28039 7.70281 4.52921 8.68001 4.51924C9.70042 4.51592 10.7208 4.52257 11.7446 4.52257ZM11.7545 16.7874C12.745 16.7874 13.7355 16.7874 14.7227 16.7874C14.9886 16.7874 15.0651 16.711 15.0684 16.4484C15.0717 16.249 15.075 16.0495 15.0684 15.8501C15.0584 15.5011 15.0916 15.1388 15.0185 14.8031C14.8424 13.9954 14.3704 13.3772 13.689 12.9119C13.5328 12.8055 13.3766 12.6825 13.2569 12.5396C12.5822 11.7219 12.7816 10.5387 13.6558 9.9437C14.5698 9.32215 15.1116 8.48787 15.0684 7.33783C15.0584 7.05863 15.0684 6.77943 15.065 6.50023C15.065 6.10138 15.0218 6.05817 14.6296 6.05817C12.8015 6.05817 10.9734 6.06149 9.14534 6.05817C8.38419 6.05817 8.42075 6.0216 8.4274 6.76946C8.43073 7.18494 8.38752 7.61038 8.46729 8.00924C8.63015 8.81693 9.09216 9.44845 9.77687 9.91046C10.9269 10.6849 10.9236 12.154 9.78684 12.9351C8.90935 13.5401 8.38419 14.361 8.42408 15.4712C8.43405 15.767 8.42408 16.0628 8.42408 16.3587C8.42408 16.7409 8.47061 16.7907 8.8462 16.7907C9.8234 16.7874 10.7906 16.7874 11.7545 16.7874Z" fill="#FBAC42"/>
<path d="M19.1402 5.58292C19.1036 5.87874 19.067 6.16791 19.0271 6.45708C18.964 6.92574 18.6881 7.20494 18.2826 7.21823C17.8073 7.23485 17.445 6.86591 17.4982 6.37399C17.5713 5.68263 17.6744 4.99793 17.7641 4.3099C17.8007 4.04067 17.8339 3.77144 17.8771 3.50554C17.9536 3.04353 18.2627 2.79092 18.7413 2.84742C19.5324 2.93717 20.3234 3.05018 21.1145 3.15654C21.274 3.17648 21.4303 3.19642 21.5865 3.22634C22.002 3.29946 22.2878 3.67173 22.2379 4.06394C22.1814 4.49271 21.8059 4.78521 21.3704 4.73535C21.058 4.69879 20.7456 4.65558 20.4165 4.61569C20.709 5.06773 21.0048 5.48321 21.2574 5.92195C25.0499 12.4333 21.2375 20.7993 13.8354 22.2153C12.672 22.438 11.5054 22.4778 10.3354 22.315C9.85343 22.2485 9.58088 21.8829 9.64735 21.4242C9.70718 21.0087 10.0794 20.7528 10.5481 20.806C15.1715 21.3345 19.4127 18.6422 20.7622 14.2514C21.7028 11.1902 21.1777 8.34168 19.3063 5.74246C19.2731 5.69593 19.2365 5.65604 19.2 5.61283C19.1933 5.59622 19.1734 5.59289 19.1402 5.58292Z" fill="#FBAC42"/>
<path d="M4.36267 17.3058C4.41586 16.9302 4.45574 16.5978 4.51225 16.2688C4.58869 15.83 4.93769 15.5774 5.37644 15.6339C5.77862 15.6871 6.07111 16.0461 6.01793 16.4715C5.9016 17.4221 5.77862 18.3694 5.63902 19.3167C5.56589 19.8153 5.24681 20.0612 4.74824 20.0014C3.8076 19.8884 2.86696 19.7621 1.92632 19.6225C1.5042 19.5627 1.22167 19.1804 1.27153 18.7882C1.32471 18.3595 1.69033 18.0736 2.13905 18.1168C2.45148 18.1467 2.76392 18.1933 3.12622 18.2365C3.04312 18.1201 2.98994 18.0437 2.93344 17.9672C-0.70946 13.0679 0.367455 6.08794 5.31993 2.51817C7.48041 0.959305 9.90014 0.291219 12.5525 0.460734C12.7752 0.474029 12.9979 0.503943 13.2173 0.537181C13.6494 0.606981 13.912 0.962629 13.8621 1.39472C13.8156 1.79358 13.45 2.07278 13.0278 2.04951C12.5093 2.0196 11.9908 1.96642 11.4756 1.97971C7.6333 2.07943 4.20978 4.49916 2.90352 8.11879C1.74684 11.3229 2.21217 14.331 4.19648 17.1031C4.23969 17.1629 4.28623 17.2127 4.36267 17.3058Z" fill="#FBAC42"/>
</svg>
